<svg width="64" height="64" viewBox="0 0 64 64" fill="none" xmlns="http://www.w3.org/2000/svg">
<path d="M0 42V47.65C0 48.6855 0.8395 49.525 1.875 49.525H3.90987C3.88238 49.7505 3.8665 49.9796 3.8665 50.2125C3.8665 53.321 6.39587 55.85 9.505 55.85C12.614 55.85 15.1434 53.3211 15.1434 50.2125C15.1434 49.9796 15.1275 49.7505 15.1 49.525H17.0321C17.0046 49.7505 16.9888 49.9796 16.9888 50.2125C16.9888 53.321 19.5181 55.85 22.6273 55.85C25.7362 55.85 28.2656 53.3211 28.2656 50.2125C28.2656 49.9796 28.2498 49.7505 28.2222 49.525H35.787C35.7595 49.7505 35.7436 49.9796 35.7436 50.2125C35.7436 53.321 38.273 55.85 41.3821 55.85C44.4911 55.85 47.0205 53.3211 47.0205 50.2125C47.0205 49.9796 47.0046 49.7505 46.9771 49.525H48.8946C48.8671 49.7505 48.8512 49.9796 48.8512 50.2125C48.8512 53.321 51.3806 55.85 54.4897 55.85C57.5988 55.85 60.1281 53.3211 60.1281 50.2125C60.1281 49.9796 60.1123 49.7505 60.0848 49.525H62.125C63.1605 49.525 64 48.6855 64 47.65V42H0Z" fill="#817C7C"/>
<path d="M62.1351 13.7754C62.1351 10.6738 59.6115 8.15039 56.5093 8.15039H7.50722C4.40622 8.15039 1.88247 10.6729 1.88134 13.7731L1.87109 38.2504H62.1351V13.7754ZM15.113 30.0816C15.113 31.1171 14.2735 31.9566 13.238 31.9566C12.2025 31.9566 11.363 31.1171 11.363 30.0816V15.9004C11.363 14.8649 12.2025 14.0254 13.238 14.0254C14.2735 14.0254 15.113 14.8649 15.113 15.9004V30.0816ZM24.4773 30.0816C24.4773 31.1171 23.6378 31.9566 22.6023 31.9566C21.5668 31.9566 20.7273 31.1171 20.7273 30.0816V15.9004C20.7273 14.8649 21.5668 14.0254 22.6023 14.0254C23.6378 14.0254 24.4773 14.8649 24.4773 15.9004V30.0816ZM33.8668 30.0816C33.8668 31.1171 33.0273 31.9566 31.9918 31.9566C30.9563 31.9566 30.1168 31.1171 30.1168 30.0816V15.9004C30.1168 14.8649 30.9563 14.0254 31.9918 14.0254C33.0273 14.0254 33.8668 14.8649 33.8668 15.9004V30.0816ZM43.2562 30.0816C43.2562 31.1171 42.4167 31.9566 41.3812 31.9566C40.3457 31.9566 39.5062 31.1171 39.5062 30.0816V15.9004C39.5062 14.8649 40.3457 14.0254 41.3812 14.0254C42.4167 14.0254 43.2562 14.8649 43.2562 15.9004V30.0816ZM52.6316 30.0816C52.6316 31.1171 51.7921 31.9566 50.7566 31.9566C49.7211 31.9566 48.8816 31.1171 48.8816 30.0816V15.9004C48.8816 14.8649 49.7211 14.0254 50.7566 14.0254C51.7921 14.0254 52.6316 14.8649 52.6316 15.9004V30.0816Z" fill="#817C7C"/>
</svg>
