<svg width="22" height="23" viewBox="0 0 22 23" fill="none" xmlns="http://www.w3.org/2000/svg">
<path d="M19.8258 6.00258L12.5178 13.3138C12.1665 13.6462 11.9501 13.5647 11.7336 13.3577C11.6646 13.1663 11.9407 12.3195 12.0598 11.9619C12.4582 10.7638 13.0635 8.9603 11.7086 7.60533C10.7206 6.61734 9.49419 6.30055 8.249 6.71457C7.4241 6.99058 6.88462 7.50497 6.78425 7.60533L0.31365 14.0728C0.106641 13.2322 0 12.3697 0 11.5009C0 8.64979 1.11346 5.96494 3.12709 3.95131C5.14072 1.93768 7.82557 0.824219 10.6766 0.824219C13.5277 0.824219 16.2126 1.93768 18.2262 3.95131C18.841 4.56606 19.3773 5.25609 19.8258 6.00258Z" fill="#00D7FF"/>
<path d="M21.3534 11.5004C21.3534 14.3515 20.2399 17.0364 18.2263 19.05C16.2126 21.0636 13.5278 22.1771 10.6767 22.1771C7.82564 22.1771 5.1408 21.0636 3.12717 19.05C2.51241 18.4352 1.97293 17.7452 1.52441 17.0019L8.83246 9.69067C9.18375 9.3582 9.40017 9.43975 9.61658 9.64676C9.68559 9.83809 9.40958 10.6849 9.29039 11.0425C8.89205 12.2406 8.28671 14.0441 9.64168 15.3991C10.6297 16.3871 11.856 16.7039 13.1012 16.2899C13.9261 16.0139 14.4656 15.4995 14.566 15.3991L21.0366 8.93164C21.2467 9.76909 21.3534 10.6285 21.3534 11.5004Z" fill="#0060BE"/>
</svg>
