<svg width="64" height="64" viewBox="0 0 64 64" fill="none" xmlns="http://www.w3.org/2000/svg">
<g clip-path="url(#clip0_2494_6674)">
<path d="M22.625 18.875C22.625 17.8395 21.7855 17 20.75 17H18.75V9.5C18.75 8.4645 17.9105 7.625 16.875 7.625C15.8395 7.625 15 8.4645 15 9.5V17H13.25C12.2145 17 11.375 17.8395 11.375 18.875V20.875H22.6247V18.875H22.625Z" />
<path d="M3.875 24.625H22.6245V33.875H3.875V24.625Z" />
<path d="M62.1234 52.625H59.7866C58.985 49.6409 59.2456 46.4976 60.5511 43.6585L63.827 36.5332C64.3959 35.2959 63.4934 33.875 62.1234 33.875H52.6236C51.9134 33.875 51.2641 34.2762 50.9466 34.9115L49.5899 37.625H1.875C0.8395 37.625 0 38.4645 0 39.5V43.2895C0 46.3694 2.5055 48.875 5.58525 48.875H5.74975V52.625H1.875C0.8395 52.625 0 53.4645 0 54.5C0 55.5355 0.8395 56.375 1.875 56.375H62.1235C63.159 56.375 63.9985 55.5355 63.9985 54.5C63.9985 53.4645 63.1589 52.625 62.1234 52.625ZM51.9986 42.125C53.0341 42.125 53.8736 42.9645 53.8736 44C53.8736 45.0355 53.0341 45.875 51.9986 45.875C50.9631 45.875 50.1236 45.0355 50.1236 44C50.1236 42.9645 50.9631 42.125 51.9986 42.125Z" />
<path d="M37.6249 18.625H32.625C31.9346 18.625 31.375 19.1846 31.375 19.875V24.625H37.6249V18.625Z" />
<path d="M47.6249 19.875C47.6249 19.1846 47.0652 18.625 46.3749 18.625H41.375V24.625H47.6249V19.875Z" />
<path d="M26.375 28.375H32.6249V33.875H26.375V28.375Z"/>
<path d="M36.375 28.375H42.6249V33.875H36.375V28.375Z"/>
<path d="M46.375 33.875H47.2738C47.4064 33.7199 48.5949 30.125 52.6249 30.125V28.375H46.375V33.875Z" />
</g>
<defs>
<clipPath id="clip0_2494_6674">
<rect width="64" height="64" fill="white"/>
</clipPath>
</defs>
</svg>
