<svg width="64" height="64" viewBox="0 0 64 64" fill="none" xmlns="http://www.w3.org/2000/svg">
<path d="M40.0831 10.0625H5.34029C4.31611 10.0625 3.51172 10.8669 3.51172 11.8911V33.8339C3.51172 34.8395 4.31611 35.6625 5.34029 35.6625H40.0831C41.0889 35.6625 41.9117 34.8395 41.9117 33.8339V11.8911C41.9117 10.8669 41.089 10.0625 40.0831 10.0625V10.0625Z"/>
<path d="M3.49219 44.8053C3.49219 45.8108 4.31504 46.6338 5.32076 46.6338H7.29562C8.06362 42.8119 11.2088 39.8133 15.1219 39.3196H5.33904C4.68058 39.3196 4.07751 39.2097 3.49219 38.9902V44.8053Z"/>
<path d="M56.4122 46.6336H58.6796C59.6853 46.6336 60.5082 45.8106 60.5082 44.8051V28.7868C60.5082 25.9158 53.5048 19.2051 49.6649 19.2051H45.5689V33.8336C45.5689 36.8506 43.1002 39.3194 40.0832 39.3194H17.5C21.4133 39.8131 24.5585 42.8118 25.3263 46.6336H38.3823C39.2236 42.4279 42.9356 39.2279 47.3973 39.2279C51.8408 39.2278 55.571 42.4278 56.4122 46.6336V46.6336ZM48.5674 23.7032C57.9299 23.246 57.5461 32.9192 57.5461 32.9192H48.5674V23.7032Z"/>
<path d="M47.3895 53.9371C50.4393 53.9371 52.9118 51.4647 52.9118 48.4149C52.9118 45.365 50.4393 42.8926 47.3895 42.8926C44.3396 42.8926 41.8672 45.365 41.8672 48.4149C41.8672 51.4647 44.3396 53.9371 47.3895 53.9371Z"/>
<path d="M16.3035 53.9371C19.3534 53.9371 21.8258 51.4647 21.8258 48.4149C21.8258 45.365 19.3534 42.8926 16.3035 42.8926C13.2537 42.8926 10.7812 45.365 10.7812 48.4149C10.7812 51.4647 13.2537 53.9371 16.3035 53.9371Z"/>
</svg>
